Coordinates
version=1
nRows=4
nColumns=63
inDegrees=yes

Units are S.I. units (second, meters, Newtons, ...)
If the header above contains a line with 'inDegrees', this indicates whether rotational values are in degrees (yes) or radians (no).

endheader
time	pelvis_tilt	pelvis_list	pelvis_rotation	pelvis_tx	pelvis_ty	pelvis_tz	hip_flexion_r	hip_adduction_r	hip_rotation_r	knee_angle_r	knee_angle_r_beta	ankle_angle_r	subtalar_angle_r	mtp_angle_r	hip_flexion_l	hip_adduction_l	hip_rotation_l	knee_angle_l	knee_angle_l_beta	ankle_angle_l	subtalar_angle_l	mtp_angle_l	L5_S1_Flex_Ext	L5_S1_Lat_Bending	L5_S1_axial_rotation	L4_L5_Flex_Ext	L4_L5_Lat_Bending	L4_L5_axial_rotation	L3_L4_Flex_Ext	L3_L4_Lat_Bending	L3_L4_axial_rotation	L2_L3_Flex_Ext	L2_L3_Lat_Bending	L2_L3_axial_rotation	L1_L2_Flex_Ext	L1_L2_Lat_Bending	L1_L2_axial_rotation	L1_T12_Flex_Ext	L1_T12_Lat_Bending	L1_T12_axial_rotation	Abs_r3	Abs_r2	Abs_r1	Abs_t1	Abs_t2	neck_flexion	neck_bending	neck_rotation	arm_flex_r	arm_add_r	arm_rot_r	elbow_flex_r	pro_sup_r	wrist_flex_r	wrist_dev_r	arm_flex_l	arm_add_l	arm_rot_l	elbow_flex_l	pro_sup_l	wrist_flex_l	wrist_dev_l
      0.00000000	     -2.63810522	     -2.50271237	     94.59839190	      0.26746307	      0.70638865	      0.81633478	     -5.26526800	      2.84884415	      4.97770733	      0.45182220	      0.00788578	     17.01639391	    -16.29357113	      0.00000000	     -4.59203238	     -2.29721234	     12.91100657	      0.49796529	      0.00869113	     27.50791470	     -8.88988630	      0.00000000	      0.20164219	      0.55395173	      0.00089056	      0.37446970	      0.73675580	      0.00094622	      0.33127795	      1.34687823	      0.00094622	      0.23045686	      1.34687823	      0.00077924	      0.18724493	      1.12961836	      0.00072358	      0.11521835	      0.85807122	      0.00066792	      1.44030998	      6.26641272	      0.00495303	      0.00000000	      0.00000000	     20.70768898	      2.21628326	      4.03360820	     11.00049533	    -10.57769495	     53.67925945	     49.19756623	     27.87289194	     -3.31801500	     19.62899807	     19.46267068	     -3.12130488	     74.50030630	     34.29151524	     65.88289325	     -0.95549522	    -14.15787486
      0.02173913	     -2.80104610	     -2.67425348	     95.16479371	      0.26740138	      0.70583634	      0.81749035	     -5.29791937	      2.81404155	      1.93712383	      0.58609908	      0.01022936	     16.05839254	    -15.11152163	      0.00000000	     -4.28299311	     -2.17697558	     12.68674929	      0.53624314	      0.00935921	     28.28412459	     -7.55805421	      0.00000000	      0.20904885	      0.52253316	     -0.03541366	      0.38822462	      0.69496910	     -0.03762702	      0.34344636	      1.27048713	     -0.03762702	      0.23892193	      1.27048713	     -0.03098695	      0.19412276	      1.06554962	     -0.02877360	      0.11945051	      0.80940387	     -0.02656025	      1.49321505	      5.91099962	     -0.19696016	      0.00000000	      0.00000000	     21.19098061	      2.59261214	      3.00718387	     12.12634194	    -10.74230627	     55.15550052	     48.73532348	     28.82854347	     -0.71634647	     18.52626787	     18.92575316	     -3.20111480	     72.36046313	     34.47918679	     66.49645649	      0.23134954	    -14.63185572
      0.04347826	     -2.97429347	     -2.77020575	     95.16407271	      0.26802344	      0.70560026	      0.81876388	     -5.24720030	      2.68393933	      0.96826419	      0.70545256	      0.01231247	     15.02360906	    -15.29117378	      0.00000000	     -4.10662920	     -2.00850298	     12.78127318	      0.55815440	      0.00974163	     28.52627823	     -7.55402435	      0.00000000	      0.20809971	      0.50036891	      0.03913296	      0.38646197	      0.66549065	      0.04157877	      0.34188701	      1.21659697	      0.04157877	      0.23783716	      1.21659697	      0.03424134	      0.19324139	      1.02035228	      0.03179553	      0.11890817	      0.77507144	      0.02934972	      1.48643540	      5.66027318	      0.21764577	      0.00000000	      0.00000000	     21.24359078	      2.72480232	      2.74772874	     12.47548786	    -10.96355401	     55.28767621	     49.12735624	     28.83310750	     -0.50917213	     18.57106871	     18.95424799	     -3.30595180	     72.03870550	     34.81667074	     66.48852292	      0.26004595	    -14.85723874
      0.06521739	     -2.95677800	     -2.90601020	     96.04524556	      0.26771959	      0.70551693	      0.81985337	     -5.08249506	      2.83947915	     -2.00680085	      0.81670263	      0.01425415	     14.78676630	    -13.70626149	      0.00000000	     -3.75481278	     -2.10669241	     13.63903268	      0.58099449	      0.01014027	     28.41122977	     -7.69606252	      0.00000000	      0.22574198	      0.47956106	     -0.16675991	      0.41922542	      0.63781621	     -0.17718240	      0.37087149	      1.16600477	     -0.17718240	      0.25800050	      1.16600477	     -0.14591492	      0.20962400	      0.97792092	     -0.13549243	      0.12898896	      0.74284009	     -0.12506993	      1.61245235	      5.42489066	     -0.92746859	      0.00000000	      0.00000000	     21.47976128	      3.26875824	      1.80167049	     13.41523325	    -11.13556836	     57.60781620	     49.19766082	     26.40086610	      0.04509187	     17.79978982	     17.43244898	     -3.57394508	     66.05199111	     35.55890697	     72.40226614	      1.72989600	    -14.05135624
